# xmcd
#
# Track frame offsets: 
#        150
#        11281
#        19900
#        34881
#        44209
#        52444
#        60557
#        71907
#        80150
#        89872
#        104545
#        116552
#        126311
#        135634
#
# Disc length: 1951 seconds
#
# Revision: 0
# Processed by: cddbd v1.5.2PL0 Copyright (c) Steve Scherf et al.
# Submitted via: ExactAudioCopy v1.0b3
#
DISCID=dc079d0e
DTITLE=The Lonesome Pine Fiddlers - The Lonesome Pine Fiddlers Starday
DTITLE=Collection
DYEAR=2009
DGENRE=Bluegrass
TTITLE0=Coal Dust Blues
TTITLE1=Bringin' In The Georgia Mail
TTITLE2=All By Myself
TTITLE3=Road Hog Red
TTITLE4=Lost Girl
TTITLE5=What Makes A Man Wander
TTITLE6=Death Came Creeping In My Room
TTITLE7=Too Hot To Handle
TTITLE8=Hobo Blues
TTITLE9=Precious Jewel
TTITLE10=Hello Mr. Banjo
TTITLE11=Old Reuben
TTITLE12=Ya'll Come
TTITLE13=Old Homestead Ain't So Homey Anymore
EXTD=
EXTT0=
EXTT1=
EXTT2=
EXTT3=
EXTT4=
EXTT5=
EXTT6=
EXTT7=
EXTT8=
EXTT9=
EXTT10=
EXTT11=
EXTT12=
EXTT13=
PLAYORDER=
